<svg width="110" height="277" viewBox="0 0 110 277" fill="none" xmlns="http://www.w3.org/2000/svg">
<path d="M-258.968 170.541C-259.874 204.334 -241.675 251.123 -204.212 242.675C-175.895 236.29 -201.661 204.154 -166.84 185.981C-132.019 167.807 -86.5901 173.269 -64.8614 203.192C-48.8608 225.226 -77.2195 246.254 -64.8614 270.01C-36.4556 324.615 104.444 312.594 109.834 252.799C113.407 213.164 58.2306 207.401 41.1728 170.541C20.4472 125.757 62.936 85.6182 29.2946 47.2812C3.85339 18.2889 -25.2008 -8.84112 -64.8614 2.73538C-116.369 17.77 -15.6103 104.234 -64.8614 124.224C-87.7427 133.511 -104.512 127.469 -129.467 124.224C-159.972 120.257 -174.289 95.4283 -204.212 101.951C-240.481 109.857 -258.092 137.893 -258.968 170.541Z" fill="url(#paint0_linear_32_1285)" fill-opacity="0.6"/>
<defs>
<linearGradient id="paint0_linear_32_1285" x1="-259" y1="0" x2="40.5491" y2="362.405" gradientUnits="userSpaceOnUse">
<stop stop-color="#33BCB9"/>
<stop offset="1" stop-color="#28336F"/>
</linearGradient>
</defs>
</svg>
